Coordinates
version=1
nRows=14
nColumns=63
inDegrees=yes

Units are S.I. units (second, meters, Newtons, ...)
If the header above contains a line with 'inDegrees', this indicates whether rotational values are in degrees (yes) or radians (no).

endheader
time	pelvis_tilt	pelvis_list	pelvis_rotation	pelvis_tx	pelvis_ty	pelvis_tz	hip_flexion_r	hip_adduction_r	hip_rotation_r	knee_angle_r	knee_angle_r_beta	ankle_angle_r	subtalar_angle_r	mtp_angle_r	hip_flexion_l	hip_adduction_l	hip_rotation_l	knee_angle_l	knee_angle_l_beta	ankle_angle_l	subtalar_angle_l	mtp_angle_l	L5_S1_Flex_Ext	L5_S1_Lat_Bending	L5_S1_axial_rotation	L4_L5_Flex_Ext	L4_L5_Lat_Bending	L4_L5_axial_rotation	L3_L4_Flex_Ext	L3_L4_Lat_Bending	L3_L4_axial_rotation	L2_L3_Flex_Ext	L2_L3_Lat_Bending	L2_L3_axial_rotation	L1_L2_Flex_Ext	L1_L2_Lat_Bending	L1_L2_axial_rotation	L1_T12_Flex_Ext	L1_T12_Lat_Bending	L1_T12_axial_rotation	Abs_r3	Abs_r2	Abs_r1	Abs_t1	Abs_t2	neck_flexion	neck_bending	neck_rotation	arm_flex_r	arm_add_r	arm_rot_r	elbow_flex_r	pro_sup_r	wrist_flex_r	wrist_dev_r	arm_flex_l	arm_add_l	arm_rot_l	elbow_flex_l	pro_sup_l	wrist_flex_l	wrist_dev_l
1.366667	2.397813	-1.988100	99.636537	0.136442	0.917521	0.378906	-1.755365	-2.899307	-27.950590	14.257781	0.248845	33.221209	18.410834	0.000000	6.372307	-1.389578	-0.444783	22.437016	0.391600	33.647277	1.127846	0.000000	-0.207233	-0.462837	0.313423	-0.384853	-0.615573	0.333012	-0.340464	-1.125341	0.333012	-0.236847	-1.125341	0.274245	-0.192437	-0.943817	0.254656	-0.118413	-0.716934	0.235067	-1.480247	-5.235701	1.743163	0.000000	0.000000	9.738290	10.417178	-13.393219	59.957135	-21.513226	-16.105092	148.588067	67.890949	-3.170998	33.749448	17.141257	-15.975804	78.982182	43.262125	89.056385	-4.986361	-5.044595
1.383333	2.422425	-2.032558	99.885538	0.136159	0.917473	0.378436	-1.802762	-2.807335	-28.022913	14.085651	0.245841	33.345545	18.367155	0.000000	6.577247	-1.520218	-0.666937	22.575728	0.394021	34.610356	2.535271	0.000000	-0.206668	-0.452262	0.365255	-0.383804	-0.601509	0.388084	-0.339535	-1.099630	0.388084	-0.236201	-1.099630	0.319598	-0.191912	-0.922253	0.296770	-0.118090	-0.700554	0.273941	-1.476212	-5.116079	2.031439	0.000000	0.000000	9.767995	10.483822	-13.185609	60.128517	-21.251104	-16.733421	148.683326	68.005514	-2.479535	33.576979	17.404421	-15.899276	79.576748	43.314003	89.103500	-5.770119	-4.963190
1.400000	2.475206	-2.076050	100.110501	0.135836	0.917381	0.377928	-1.845902	-2.686230	-28.065645	13.892813	0.242475	33.509973	18.325841	0.000000	6.778355	-1.667326	-0.866694	22.727058	0.396662	35.535007	3.812684	0.000000	-0.203096	-0.435899	0.412762	-0.377169	-0.579746	0.438559	-0.333666	-1.059845	0.438559	-0.232118	-1.059845	0.361167	-0.188595	-0.888886	0.335369	-0.116049	-0.675208	0.309571	-1.450691	-4.930979	2.295657	0.000000	0.000000	9.728094	10.530106	-12.805259	60.415933	-20.977547	-16.886825	148.760538	67.978800	-3.202074	33.399484	17.483400	-15.810019	79.797200	43.413194	89.139916	-6.332412	-4.749838
1.416667	2.545816	-2.117419	100.270243	0.135589	0.917270	0.377375	-1.875440	-2.550242	-28.046667	13.702803	0.239159	33.707360	18.279677	0.000000	6.967171	-1.857673	-1.224817	22.900434	0.399688	36.412827	5.139464	0.000000	-0.196922	-0.417005	0.472362	-0.365703	-0.554617	0.501884	-0.323522	-1.013907	0.501884	-0.225062	-1.013907	0.413317	-0.182861	-0.850357	0.383794	-0.112521	-0.645941	0.354271	-1.406591	-4.717247	2.627135	0.000000	0.000000	9.657292	10.561573	-12.424138	60.718040	-20.773576	-16.625960	148.767029	68.369872	-4.694003	33.322643	17.491164	-15.736467	79.901828	43.527997	89.164638	-6.716838	-4.471256
1.433333	2.623663	-2.155061	100.414274	0.135312	0.917141	0.376799	-1.907638	-2.411568	-28.035591	13.510606	0.235805	33.917618	18.241574	0.000000	7.140407	-2.032234	-1.527301	23.080114	0.402824	37.132220	6.216302	0.000000	-0.187658	-0.395154	0.516142	-0.348499	-0.525555	0.548401	-0.308303	-0.960779	0.548401	-0.214474	-0.960779	0.451624	-0.174259	-0.805799	0.419365	-0.107228	-0.612094	0.387106	-1.340419	-4.470066	2.870627	0.000000	0.000000	9.507308	10.573311	-11.882299	61.069646	-20.522714	-15.839816	148.719120	68.568142	-7.301014	33.184638	17.285887	-15.676571	79.564505	43.682233	89.177206	-6.852888	-4.082730
1.450000	2.709760	-2.187454	100.557919	0.134978	0.917001	0.376236	-1.943719	-2.271154	-28.060413	13.325480	0.232573	34.112748	18.211700	0.000000	7.301150	-2.193196	-1.790314	23.267069	0.406087	37.675476	7.071873	0.000000	-0.175530	-0.370557	0.538234	-0.325977	-0.492841	0.571873	-0.288378	-0.900973	0.571873	-0.200613	-0.900973	0.470954	-0.162997	-0.755640	0.437315	-0.100298	-0.573993	0.403675	-1.253794	-4.191818	2.993494	0.000000	0.000000	9.287988	10.560580	-11.220554	61.431316	-20.232815	-14.596348	148.621883	68.380724	-10.815435	33.008670	16.850390	-15.621611	78.717508	43.861576	89.175702	-6.695595	-3.579971
1.466667	2.796206	-2.210500	100.715407	0.134560	0.916853	0.375709	-1.988694	-2.139937	-28.141997	13.160099	0.229687	34.273283	18.191117	0.000000	7.440360	-2.313511	-1.918886	23.449534	0.409272	38.004274	7.586126	0.000000	-0.161496	-0.343915	0.530052	-0.299915	-0.457407	0.563181	-0.265322	-0.836195	0.563181	-0.184574	-0.836195	0.463796	-0.149966	-0.701311	0.430668	-0.092279	-0.532724	0.397539	-1.153553	-3.890435	2.947992	0.000000	0.000000	9.006769	10.519984	-10.414378	61.789785	-19.891892	-12.886474	148.498512	67.695458	-15.284731	32.774578	16.127223	-15.583128	77.196446	44.112678	89.162943	-6.179336	-2.842198
1.483333	2.879118	-2.221663	100.905810	0.134052	0.916710	0.375231	-2.049295	-2.018886	-28.294838	13.016230	0.227176	34.377168	18.176340	0.000000	7.554852	-2.395425	-1.930164	23.627619	0.412380	38.125168	7.811585	0.000000	-0.145965	-0.316184	0.488424	-0.271071	-0.420525	0.518951	-0.239805	-0.768771	0.518951	-0.166823	-0.768771	0.427371	-0.135543	-0.644763	0.396845	-0.083404	-0.489770	0.366318	-1.042611	-3.576740	2.716470	0.000000	0.000000	8.670744	10.446947	-9.486794	62.115078	-19.494387	-10.807184	148.363289	66.620793	-20.399355	32.490022	15.139797	-15.561373	75.068529	44.429494	89.137784	-5.375050	-1.902674
1.500000	2.949539	-2.214435	101.123734	0.133463	0.916585	0.374792	-2.129706	-1.917339	-28.502883	12.903764	0.225213	34.418928	18.164485	0.000000	7.624670	-2.437242	-1.852036	23.783666	0.415103	38.050054	7.786855	0.000000	-0.130095	-0.288990	0.418241	-0.241600	-0.384357	0.444381	-0.213734	-0.702651	0.444381	-0.148686	-0.702651	0.365961	-0.120806	-0.589309	0.339821	-0.074336	-0.447646	0.313681	-0.929258	-3.269116	2.326133	0.000000	0.000000	8.288821	10.349657	-8.482171	62.368535	-19.051915	-8.494565	148.227728	65.112194	-25.786941	32.098325	13.923293	-15.559183	72.407317	44.818030	89.103187	-4.292952	-0.747121
1.516667	3.015041	-2.186877	101.394305	0.132774	0.916480	0.374390	-2.237291	-1.821779	-28.776140	12.812811	0.223626	34.392850	18.150757	0.000000	7.654017	-2.459442	-1.711753	23.924579	0.417563	37.829152	7.613818	0.000000	-0.114414	-0.261931	0.320206	-0.212478	-0.348368	0.340219	-0.187971	-0.636858	0.340219	-0.130764	-0.636858	0.280180	-0.106245	-0.534129	0.260167	-0.065376	-0.405731	0.240154	-0.817247	-2.963013	1.780889	0.000000	0.000000	7.868846	10.232161	-7.440197	62.550014	-18.577007	-6.047926	148.116606	63.232050	-31.278008	31.580832	12.529370	-15.575160	69.316791	45.279776	89.063729	-2.946881	0.645759
1.533333	3.087602	-2.136672	101.743689	0.131928	0.916390	0.374027	-2.376023	-1.717000	-29.127222	12.732665	0.222227	34.315803	18.134701	0.000000	7.643637	-2.463257	-1.434958	24.038727	0.419555	37.488454	7.245703	0.000000	-0.099439	-0.233352	0.195882	-0.184668	-0.310358	0.208124	-0.163368	-0.567371	0.208124	-0.113649	-0.567371	0.171397	-0.092339	-0.475851	0.159154	-0.056819	-0.361462	0.146911	-0.710283	-2.639722	1.089436	0.000000	0.000000	7.417645	10.089556	-6.407778	62.671896	-18.099733	-3.580339	148.026929	61.085054	-36.558087	30.960118	11.042682	-15.599880	66.010535	45.799098	89.019834	-1.443045	2.247772
1.550000	3.149410	-2.064114	102.171753	0.130921	0.916314	0.373685	-2.543759	-1.624074	-29.567930	12.674313	0.221208	34.216571	18.127272	0.000000	7.584142	-2.424638	-0.975779	24.105971	0.420729	37.057711	6.650060	0.000000	-0.085990	-0.205243	0.046887	-0.159692	-0.272974	0.049817	-0.141273	-0.499029	0.049817	-0.098278	-0.499029	0.041026	-0.079850	-0.418532	0.038095	-0.049135	-0.317922	0.035165	-0.614217	-2.321753	0.260770	0.000000	0.000000	6.933150	9.917648	-5.398363	62.730979	-17.594449	-1.190646	147.945290	58.716709	-41.316147	30.224534	9.481694	-15.637137	62.493018	46.367728	88.978543	0.288203	4.051939
1.566667	3.237962	-1.956938	102.676471	0.129762	0.916285	0.373403	-2.744562	-1.496503	-30.072009	12.621083	0.220279	34.085319	18.117116	0.000000	7.485709	-2.438016	-0.578757	24.145865	0.421425	36.655550	6.225568	0.000000	-0.076210	-0.173723	-0.110987	-0.141529	-0.231052	-0.117924	-0.125205	-0.422391	-0.117924	-0.087100	-0.422391	-0.097114	-0.070769	-0.354256	-0.090177	-0.043546	-0.269097	-0.083240	-0.544360	-1.965192	-0.617277	0.000000	0.000000	6.418335	9.743983	-4.509695	62.750424	-17.137318	0.912154	147.871783	56.035311	-45.215999	29.447097	8.125843	-15.585202	59.525441	46.797693	88.935102	1.676595	5.652465
1.583333	3.341200	-1.824351	103.301034	0.128415	0.916281	0.373162	-2.978908	-1.343956	-30.697133	12.568372	0.219359	33.949724	18.110862	0.000000	7.369842	-2.471795	-0.121598	24.163670	0.421736	36.283599	5.874248	0.000000	-0.069549	-0.140692	-0.285571	-0.129160	-0.187121	-0.303419	-0.114262	-0.342079	-0.303419	-0.079488	-0.342079	-0.249874	-0.064583	-0.286900	-0.232026	-0.039740	-0.217932	-0.214178	-0.496782	-1.591540	-1.588259	0.000000	0.000000	5.883091	9.592781	-3.702080	62.733475	-16.698771	2.689156	147.813407	53.128702	-48.248838	28.645350	6.961339	-15.470921	56.993729	47.138804	88.895152	2.978468	7.229589
